<svg xmlns="http://www.w3.org/2000/svg" version="1.1" xmlns:xlink="http://www.w3.org/1999/xlink" width="2000" height="341" viewBox="0 0 2000 341"><svg xml:space="preserve" width="2000" height="341" data-version="2" data-id="lg_Q6dX7Phcpn9M9uyGFp" viewBox="0 0 558 341" x="0" y="0"><rect width="100%" height="100%" fill="transparent"></rect><path fill="#3d9970" d="M188.227 3.447v180.28h180.28V3.447zm54.084 162.252h-36.056v-18.028h36.056zm0-36.056h-36.056v-18.028h36.056zm0-36.056h-36.056V75.559h36.056zm54.084 72.112h-36.056v-18.028h36.056zm0-36.056h-36.056v-18.028h36.056zm0-36.056h-36.056V75.559h36.056zm54.084 72.112h-36.056v-18.028h36.056zm0-36.056h-36.056v-18.028h36.056zm0-36.056h-36.056V75.559h36.056zm0-36.056H206.255V21.475h144.224z"></path><path d="M142.695 264.234q-.99 0-1.6-.68-.6-.69-.99-2.23-.38-1.76-.71-5.53-.33-3.77-.33-8.44 0-5.06.3-9.87.3-4.82.91-8.5.44-2.42 1.29-3.6.85-1.19 2.39-1.19.99 0 1.76.66t1.18 2.37q.42 1.7.42 4.84 0 1.54-.11 3.49-.11 1.95-.33 4.32h.22q4.4-6.05 7.75-9.65 3.36-3.61 5.91-5.2 2.56-1.6 4.49-1.6 1.54 0 2.33.99.8.99.8 2.42 0 3.03-4.54 7.26-4.53 4.24-14.6 10.18l.44-1.05q8.69 5.5 13.15 9.71 4.45 4.21 4.45 7.45 0 1.43-.9 2.34-.91.91-2.67.91-2.2 0-4.68-1.51-2.47-1.52-5.47-5.12-3-3.6-6.79-9.82h-.22q.11 1.27.16 2.62.06 1.34.06 2.66 0 6.33-.88 9.05-.88 2.72-3.19 2.72"></path><rect width="29.31" height="40.81" x="-14.65" y="-20.41" fill="none" rx="0" ry="0" transform="translate(154.22 244.33)"></rect><path d="M178.665 229.474q1.76 0 2.39 1.43.63 1.43.63 4.24 0 .66-.08 1.4-.08.74-.25 1.35l-.11-1.1q1.32-3.58 4.07-5.58 2.75-2.01 5.83-2.01 3.41 0 5.69 1.92 2.29 1.93 3.42 5.39 1.12 3.47 1.12 8.2 0 2.91-.25 5.75-.24 2.83-.66 5.17-.41 2.33-.9 3.82-.66 1.87-1.71 2.78-1.04.9-2.47.9-1.43 0-2.2-1.04-.77-1.05-.77-2.81 0-1.87.27-4.53.28-2.67.52-5.45.25-2.78.25-5.03 0-7.7-5.06-7.7-2.69 0-4.51 2.39-1.81 2.39-2.42 6.79-.16 1.49-.16 3.69t.02 4.37q.03 2.17-.13 3.66-.22 3.3-1.24 4.73-1.02 1.43-2.78 1.43-2.03 0-3.08-1.9-1.04-1.9-1.04-6.41 0-2.31.11-5.17t.3-5.74q.19-2.89.47-5.26.55-4.45 1.59-7.06 1.05-2.62 3.14-2.62"></path><rect width="28.32" height="34.43" x="-14.16" y="-17.21" fill="none" rx="0" ry="0" transform="translate(187.72 246.92)"></rect><path d="M221.455 263.854q-4.4 0-7.67-1.95-3.28-1.96-5.06-5.59-1.79-3.63-1.79-8.63 0-5.23 1.81-9.13 1.82-3.91 5.15-6.11 3.32-2.2 7.72-2.2 4.73 0 8.2 2.12 3.46 2.12 5.39 5.91 1.92 3.8 1.92 8.86 0 5.17-1.92 8.91-1.93 3.74-5.45 5.77-3.52 2.04-8.3 2.04m.77-7.43q3.41 0 5.42-2.72 2-2.72 2-7.23 0-4.57-2-7.26-2.01-2.7-5.42-2.7-3.52 0-5.56 2.7-2.03 2.69-2.03 7.26 0 4.51 2.03 7.23 2.04 2.72 5.56 2.72"></path><rect width="30.19" height="33.61" x="-15.1" y="-16.8" fill="none" rx="0" ry="0" transform="translate(222.53 247.55)"></rect><path d="M240.705 241.354q0-5.72 1.35-8.25 1.34-2.53 3.54-2.53 1.27 0 1.96.91.68.91.96 2.42.27 1.51.27 3.38 0 2.37.03 5.53t.11 6.49q.08 3.33.19 6.19h.22q1.71-7.21 3.44-11.83t3.58-6.84q1.84-2.23 3.71-2.23 2.03 0 3.88 2.23 1.84 2.22 3.63 6.73 1.78 4.51 3.65 11.39h.22q.17-4.73.22-9.96.06-5.22.06-9.57 0-3.13 1.04-4.62 1.05-1.48 2.92-1.48 2.36 0 3.44 2.45 1.07 2.44 1.07 6.57 0 3.02-.3 6.46-.31 3.44-.86 6.63t-1.32 5.55q-1.15 3.52-2.55 5.34-1.41 1.81-3.66 1.81-2.04 0-4.04-2.39-2.01-2.39-3.77-7.18-1.76-4.78-3.25-11.93h-.22q-1.43 6.82-3.38 11.41t-4.12 6.9q-2.18 2.31-4.32 2.31-2.26 0-3.77-2.03-1.51-2.04-2.5-6.27-.44-2.15-.77-4.59-.33-2.45-.5-4.82-.16-2.36-.16-4.18"></path><rect width="39.49" height="34.81" x="-19.75" y="-17.41" fill="none" rx="0" ry="0" transform="translate(260.95 247.22)"></rect><path d="M308.405 264.184q-1.98 0-3.21-1.46-1.24-1.46-1.24-5.25 0-2.7.38-5.56.39-2.86.99-5.44.61-2.59 1.32-4.35l.33 1.54q-5.17-3.74-8.03-6.65-2.86-2.92-4.01-5.14-1.16-2.23-1.16-3.88 0-1.38.58-2.31.58-.94 1.51-1.46.94-.52 2.09-.52 2.64 0 5.37 4.01 2.72 4.02 5.69 11.94h.22q2.47-5.67 5.03-9.32 2.56-3.66 4.92-5.45 2.37-1.79 4.13-1.79 1.59 0 2.47 1.08.88 1.07.88 2.77 0 2.48-1.92 5.42-1.93 2.94-5.5 5.91-3.58 2.97-8.58 5.45l.49-1.05q.72 2.2 1.3 4.76.57 2.56.9 5.06.33 2.5.33 4.48 0 3.52-1.45 5.37-1.46 1.84-3.83 1.84"></path><rect width="32.89" height="41.09" x="-16.45" y="-20.55" fill="none" rx="0" ry="0" transform="translate(310.72 244.14)"></rect><path d="M341.845 263.854q-4.4 0-7.67-1.95-3.27-1.96-5.06-5.59-1.79-3.63-1.79-8.63 0-5.23 1.82-9.13 1.81-3.91 5.14-6.11 3.33-2.2 7.73-2.2 4.73 0 8.19 2.12 3.47 2.12 5.39 5.91 1.93 3.8 1.93 8.86 0 5.17-1.93 8.91-1.92 3.74-5.44 5.77-3.52 2.04-8.31 2.04m.77-7.43q3.41 0 5.42-2.72t2.01-7.23q0-4.57-2.01-7.26-2.01-2.7-5.42-2.7-3.52 0-5.55 2.7-2.04 2.69-2.04 7.26 0 4.51 2.04 7.23 2.03 2.72 5.55 2.72"></path><rect width="30.2" height="33.61" x="-15.1" y="-16.8" fill="none" rx="0" ry="0" transform="translate(342.93 247.55)"></rect><path d="M387.825 263.354q-1.48 0-2.28-1.01-.8-1.02-1.07-2.64-.28-1.63-.28-3.44l.28-.22q-.55 2.36-2.15 4.07-1.59 1.7-3.68 2.61-2.09.91-4.18.91-2.81 0-5.12-1.32t-3.57-4.07q-1.27-2.92-1.98-7.34-.72-4.43-.72-9.11 0-2.53.22-4.67.22-2.15.72-3.52.44-1.43 1.32-2.12.88-.69 2.25-.69 1.6 0 2.51 1.24.9 1.24 1.12 3.44.22 1.81.31 4.48l.16 5.34q.08 2.66.25 4.48.33 3.3 1.7 4.87 1.38 1.56 3.36 1.56 2.91 0 4.45-2.2t1.54-6.16q0-1.98-.22-4.48-.22-2.5-.46-4.87-.25-2.36-.25-3.9 0-2.59.88-3.71.88-1.13 2.42-1.13 1.32 0 2.23.71.9.72 1.45 1.98.77 1.65 1.32 4.51t.88 6.49q.33 3.63.33 7.65 0 6.16-.82 9.21-.83 3.05-2.92 3.05"></path><rect width="28.49" height="33.88" x="-14.24" y="-16.94" fill="none" rx="0" ry="0" transform="translate(377.82 247.2)"></rect><path d="M398.275 238.884q0-5.28.99-7.62t2.81-2.34q1.43 0 2.25 1.19.83 1.18 1.21 2.91.39 1.73.39 3.49l-.28-.11q.94-2.97 2.89-5.11 1.95-2.15 4.7-2.15 3.25 0 4.79 2.67t1.54 6.63q0 5.28-1.21 7.37t-3.25 2.09q-1.48 0-2.17-1.21t-.47-4.29q.22-3.25-.38-4.51-.61-1.27-1.93-1.27-1.59 0-2.61 2.01-1.02 2.01-1.02 4.92 0 1.16.28 2.92.27 1.76.6 3.82.33 2.06.61 4.1.27 2.03.27 3.74 0 3.02-.93 4.34-.94 1.32-2.64 1.32-1.93 0-2.97-1.23-1.05-1.24-1.6-4.05-.44-2.53-.88-5.99-.44-3.47-.71-7.1-.28-3.63-.28-6.54"></path><rect width="21.29" height="34.87" x="-10.64" y="-17.43" fill="none" rx="0" ry="0" transform="translate(409.42 246.86)"></rect><path d="M24.045 336.384q-6.22 0-10.34-2.33-4.13-2.34-6.16-6.58-2.04-4.23-2.04-9.9 0-6.27 2.29-10.97 2.28-4.7 6.62-7.29 4.35-2.58 10.45-2.58 5.72 0 9.13 2.01 3.41 2 3.41 5.08 0 1.82-1.15 2.89-1.16 1.07-3.36 1.07-1.43 0-2.8-.6-1.38-.61-2.94-1.18-1.57-.58-3.72-.58-2.75 0-5.08 1.04-2.34 1.05-3.74 3.5-1.41 2.44-1.41 6.62 0 6.33 2.78 8.97 2.78 2.64 7.34 2.64 1.6 0 3.36-.3 1.76-.31 3.3-.61 1.54-.3 2.47-.3 1.87 0 2.97.91 1.1.9 1.1 2.66 0 2.53-3.19 4.18t-9.29 1.65"></path><rect width="31.9" height="39.65" x="-15.95" y="-19.82" fill="none" rx="0" ry="0" transform="translate(21.95 317.06)"></rect><path d="M65.895 336.334q-1.87 0-2.55-1.46-.69-1.46-.8-4.65l.55.28q-3.08 5.99-11.66 5.99-3.91 0-6.49-1.4-2.59-1.4-3.82-3.74-1.24-2.34-1.24-5.09 0-4.73 3.3-7.5 3.3-2.78 8.74-2.78 3.58 0 6.22 1.04 2.64 1.05 4.51 2.92l-.94-.11q-.38-5.56-2.39-7.95-2.01-2.39-5.69-2.39-2.15 0-3.96.66-1.82.66-3.33 1.35-1.51.68-2.83.68t-2.06-.88q-.75-.88-.75-2.25 0-1.98 1.9-3.74 1.9-1.76 5.03-2.86 3.14-1.1 6.82-1.1 4.46 0 7.65 2.14 3.19 2.15 4.84 6.27 1.43 3.52 2.03 7.87.61 4.34.61 9.29 0 3.74-.39 5.78-.38 2.03-1.18 2.83-.8.8-2.12.8m-12.15-6.16q1.81 0 3.68-.52 1.87-.53 3.14-1.57 1.26-1.05 1.26-2.59 0-1.32-1.07-2.17-1.07-.85-2.8-1.29-1.74-.44-3.72-.44-3.35 0-5.08 1.15-1.74 1.16-1.74 3.08 0 2.09 1.63 3.22 1.62 1.13 4.7 1.13"></path><rect width="29.7" height="35.14" x="-14.85" y="-17.57" fill="none" rx="0" ry="0" transform="translate(55.23 319.42)"></rect><path d="M82.235 335.894q-1.71 0-2.7-.8-.99-.8-1.59-2.67-.83-2.75-1.24-6.95-.41-4.21-.41-10.37 0-3.8.3-7.62.3-3.82.8-6.98.49-3.17 1.04-4.93.61-1.87 1.43-2.58.83-.72 1.87-.72 1.1 0 1.76.75.66.74 1.05 2.61.33 1.81.52 4.45t.19 5.67q0 4.12-.38 8.69-.39 4.56-1.02 8.96-.63 4.4-1.51 8.09l-1.54-.77q1.43-1.76 3.27-2.75t3.38-.99q1.27 0 1.96.69.68.68.68 2.11 0 1.43-1.23 2.86-1.24 1.43-3.06 2.34-1.81.91-3.57.91"></path><rect width="13.8" height="43.62" x="-6.9" y="-21.81" fill="none" rx="0" ry="0" transform="translate(83.7 314.58)"></rect><path d="M108.465 335.944q-4.4 0-7.67-1.95-3.27-1.95-5.06-5.58-1.79-3.63-1.79-8.64 0-5.22 1.82-9.13 1.81-3.9 5.14-6.1 3.33-2.2 7.73-2.2 4.73 0 8.19 2.12 3.47 2.11 5.39 5.91 1.93 3.79 1.93 8.85 0 5.17-1.93 8.91-1.92 3.74-5.44 5.78-3.52 2.03-8.31 2.03m.77-7.42q3.41 0 5.42-2.72 2.01-2.73 2.01-7.24 0-4.56-2.01-7.26-2.01-2.69-5.42-2.69-3.52 0-5.55 2.69-2.04 2.7-2.04 7.26 0 4.51 2.04 7.24 2.03 2.72 5.55 2.72"></path><rect width="30.2" height="33.6" x="-15.1" y="-16.8" fill="none" rx="0" ry="0" transform="translate(109.55 319.64)"></rect><path d="M129.695 310.974q0-5.28.99-7.61.99-2.34 2.81-2.34 1.43 0 2.25 1.18.83 1.18 1.21 2.92.39 1.73.39 3.49l-.28-.11q.94-2.97 2.89-5.12 1.95-2.14 4.7-2.14 3.25 0 4.79 2.67 1.54 2.66 1.54 6.62 0 5.28-1.21 7.37t-3.25 2.09q-1.48 0-2.17-1.21t-.47-4.29q.22-3.24-.38-4.51-.61-1.26-1.93-1.26-1.59 0-2.61 2.01-1.02 2-1.02 4.92 0 1.15.28 2.91.27 1.76.6 3.83.33 2.06.61 4.09.27 2.04.27 3.74 0 3.03-.93 4.35-.94 1.32-2.64 1.32-1.93 0-2.97-1.24-1.05-1.24-1.6-4.04-.44-2.53-.88-6-.44-3.46-.71-7.09-.28-3.63-.28-6.55"></path><rect width="21.29" height="34.87" x="-10.64" y="-17.43" fill="none" rx="0" ry="0" transform="translate(140.84 318.96)"></rect><path d="M160.715 293.594q2.2 0 3.17 1.21.96 1.21.96 2.81 0 1.98-1.18 3.05-1.19 1.07-3.33 1.07-2.09 0-3.14-1.18-1.04-1.18-1.04-2.78 0-2.09 1.26-3.13 1.27-1.05 3.3-1.05m.33 12.27q1.76 0 2.78 3.3 1.02 3.3 1.02 10.5 0 8.86-1.27 12.76-1.26 3.91-3.85 3.91-1.98 0-2.91-2.89-.94-2.89-.94-10.09 0-8.86 1.46-13.17 1.46-4.32 3.71-4.32"></path><rect width="8.97" height="42.74" x="-4.49" y="-21.37" fill="none" rx="0" ry="0" transform="translate(160.86 315.46)"></rect><path d="M186.955 336.224q-6.11 0-9.74-1.82-3.63-1.81-5.22-5.22-1.6-3.41-1.6-8.14 0-6 2.23-10.2 2.23-4.21 6.16-6.47 3.93-2.25 8.94-2.25 5.88 0 8.63 2.72 2.75 2.72 2.75 7.12 0 3.52-1.84 6.08t-5.09 3.93q-3.24 1.38-7.48 1.38-2.36 0-4.56-.61-2.2-.6-3.96-1.65l1.32-2.42q-.17 1.32-.17 2.64 0 3.85 2.42 5.53 2.42 1.68 6.88 1.68 3.46 0 5.55-.61 2.09-.6 3.52-1.18 1.43-.58 2.81-.58.77 0 1.4.42.63.41 1.05 1.18.41.77.41 1.87 0 1.65-1.65 3.16-1.65 1.51-4.87 2.48-3.22.96-7.89.96m-3.19-17.99q3.9 0 6.27-1.65 2.36-1.65 2.36-4.07 0-1.92-1.29-3.16-1.29-1.24-4.04-1.24-2.59 0-4.65.97-2.06.96-3.22 2.5-1.15 1.54-1.15 3.35 0 1.6 1.51 2.45 1.51.85 4.21.85"></path><rect width="30.97" height="34.1" x="-15.48" y="-17.05" fill="none" rx="0" ry="0" transform="translate(186.38 319.67)"></rect><path d="M220.115 301.354q4.9 0 7.04 1.43 2.15 1.43 2.15 3.68 0 1.32-.91 2.18-.91.85-2.56.85-1.7 0-3.54-.5-1.85-.49-4.27-.49-2.8 0-4.18 1.1-1.37 1.1-1.37 2.8 0 1.6 1.24 2.51 1.23.9 4.75 1.34 3.91.44 6.47 1.41 2.55.96 3.82 2.86 1.26 1.89 1.26 5.19 0 5.23-3.68 7.76-3.69 2.53-10.18 2.53-4.12 0-6.54-.66t-3.49-1.87q-1.08-1.21-1.08-2.86 0-1.43.97-2.23.96-.8 2.28-.8 1.26 0 2.69.31 1.43.3 3.03.63 1.59.33 3.3.33 5.5 0 5.5-3.41 0-1.16-.55-1.87-.55-.72-1.98-1.18-1.43-.47-4.18-.75-3.3-.33-5.72-1.12-2.42-.8-3.74-2.64-1.32-1.85-1.32-5.09 0-5.12 3.85-8.28 3.85-3.16 10.94-3.16"></path><rect width="24.97" height="34.65" x="-12.48" y="-17.32" fill="none" rx="0" ry="0" transform="translate(218.03 319.18)"></rect><path d="M270.605 336.334q-1.87 0-2.55-1.46-.69-1.46-.8-4.65l.55.28q-3.08 5.99-11.66 5.99-3.91 0-6.49-1.4-2.59-1.4-3.82-3.74-1.24-2.34-1.24-5.09 0-4.73 3.3-7.5 3.3-2.78 8.74-2.78 3.58 0 6.22 1.04 2.64 1.05 4.51 2.92l-.94-.11q-.38-5.56-2.39-7.95-2.01-2.39-5.69-2.39-2.15 0-3.96.66-1.82.66-3.33 1.35-1.51.68-2.83.68t-2.06-.88q-.75-.88-.75-2.25 0-1.98 1.9-3.74 1.9-1.76 5.03-2.86 3.14-1.1 6.82-1.1 4.46 0 7.65 2.14 3.19 2.15 4.84 6.27 1.43 3.52 2.03 7.87.61 4.34.61 9.29 0 3.74-.39 5.78-.38 2.03-1.18 2.83-.8.8-2.12.8m-12.15-6.16q1.81 0 3.68-.52 1.87-.53 3.14-1.57 1.26-1.05 1.26-2.59 0-1.32-1.07-2.17-1.07-.85-2.8-1.29-1.74-.44-3.72-.44-3.35 0-5.08 1.15-1.74 1.16-1.74 3.08 0 2.09 1.63 3.22 1.62 1.13 4.7 1.13"></path><rect width="29.7" height="35.14" x="-14.85" y="-17.57" fill="none" rx="0" ry="0" transform="translate(259.94 319.42)"></rect><path d="M286.615 301.574q1.76 0 2.39 1.43.63 1.43.63 4.23 0 .66-.08 1.41-.08.74-.25 1.34l-.11-1.1q1.32-3.57 4.07-5.58 2.75-2.01 5.83-2.01 3.41 0 5.7 1.93 2.28 1.92 3.41 5.39 1.12 3.46 1.12 8.19 0 2.92-.24 5.75-.25 2.83-.66 5.17-.42 2.34-.91 3.82-.66 1.87-1.71 2.78-1.04.91-2.47.91-1.43 0-2.2-1.05-.77-1.04-.77-2.8 0-1.87.27-4.54.28-2.67.53-5.44.24-2.78.24-5.04 0-7.7-5.06-7.7-2.69 0-4.51 2.4-1.81 2.39-2.42 6.79-.16 1.48-.16 3.68t.03 4.38q.02 2.17-.14 3.65-.22 3.3-1.24 4.73-1.02 1.43-2.78 1.43-2.03 0-3.08-1.89-1.04-1.9-1.04-6.41 0-2.31.11-5.17t.3-5.75q.19-2.89.47-5.25.55-4.46 1.59-7.07 1.05-2.61 3.14-2.61"></path><rect width="28.32" height="34.43" x="-14.16" y="-17.21" fill="none" rx="0" ry="0" transform="translate(295.67 319)"></rect><path d="M326.325 336.554q-5.39 0-8.42-4.04-3.02-4.05-3.02-12.35 0-8.25 3-12.07 2.99-3.83 8.6-3.83 3.19 0 5.59 1.32 2.39 1.32 4.26 3.74l-.44.22q-.5-2.25-.99-4.78-.5-2.53-.8-4.81-.3-2.29-.3-3.61 0-1.87.6-2.88.61-1.02 1.93-1.02 1.87 0 3.02 1.57 1.16 1.56 1.93 4.81.71 2.91 1.26 6.9t.91 8.31q.36 4.31.36 8.27 0 5.5-.58 8.56-.58 3.05-1.59 4.26-1.02 1.21-2.4 1.21-1.7 0-2.31-1.71-.6-1.7-.49-5.55h.82q-1.48 3.41-4.31 5.44-2.84 2.04-6.63 2.04m2.91-6.82q1.98 0 3.66-1.02 1.68-1.02 2.7-3.16 1.01-2.15 1.01-5.45 0-4.23-1.92-6.9-1.93-2.67-5.56-2.67-2.86 0-4.64 2.37-1.79 2.36-1.79 7.15 0 4.23 1.79 6.96 1.78 2.72 4.75 2.72"></path><rect width="28.93" height="44.11" x="-14.46" y="-22.05" fill="none" rx="0" ry="0" transform="translate(329.85 315)"></rect><path d="M390.015 336.224q-1.16 0-2.06-.61-.91-.6-1.41-2.11-.49-1.52-.49-4.21 0-3.91.16-8.39.17-4.48.47-9.07l.58-8.89h-.22q-1.93 7.98-4.13 12.08-2.2 4.09-4.89 4.09-1.65 0-3.05-1.51-1.41-1.51-2.7-5.11-1.29-3.61-2.83-9.82h-.22q.16 2.91.33 6.21.16 3.3.3 6.66.14 3.35.22 6.38.08 3.02.08 5.39 0 2.03-.35 3.74-.36 1.7-1.27 2.69t-2.5.99q-2.15 0-3.19-1.73-1.05-1.73-1.05-5.75 0-2.36.14-5.52.14-3.17.36-6.55.22-3.38.55-6.54.33-3.17.71-5.53.66-3.74 1.82-5.31 1.15-1.57 3.08-1.57 1.59 0 3.13 1.41 1.54 1.4 3.19 4.73 1.65 3.32 3.47 9.15h.22q1.76-5.94 3.35-9.54 1.6-3.6 3.08-5.2 1.49-1.59 2.81-1.59 2.09 0 3.19 1.62t1.81 4.59q.83 3.41 1.32 7.98.5 4.56.75 9.32.24 4.76.24 8.88 0 4.73-1.37 6.69-1.38 1.95-3.63 1.95"></path><rect width="33.22" height="41.03" x="-16.61" y="-20.52" fill="none" rx="0" ry="0" transform="translate(378.9 316.2)"></rect><path d="M426.035 336.334q-1.87 0-2.55-1.46-.69-1.46-.8-4.65l.55.28q-3.08 5.99-11.66 5.99-3.91 0-6.49-1.4-2.59-1.4-3.82-3.74-1.24-2.34-1.24-5.09 0-4.73 3.3-7.5 3.3-2.78 8.74-2.78 3.58 0 6.22 1.04 2.64 1.05 4.51 2.92l-.94-.11q-.38-5.56-2.39-7.95-2.01-2.39-5.69-2.39-2.15 0-3.96.66-1.82.66-3.33 1.35-1.51.68-2.83.68t-2.06-.88q-.75-.88-.75-2.25 0-1.98 1.9-3.74 1.9-1.76 5.03-2.86 3.14-1.1 6.82-1.1 4.46 0 7.65 2.14 3.19 2.15 4.84 6.27 1.43 3.52 2.03 7.87.61 4.34.61 9.29 0 3.74-.39 5.78-.38 2.03-1.18 2.83-.8.8-2.12.8m-12.15-6.16q1.81 0 3.68-.52 1.87-.53 3.14-1.57 1.26-1.05 1.26-2.59 0-1.32-1.07-2.17-1.07-.85-2.8-1.29-1.74-.44-3.72-.44-3.35 0-5.08 1.15-1.74 1.16-1.74 3.08 0 2.09 1.63 3.22 1.62 1.13 4.7 1.13"></path><rect width="29.7" height="35.14" x="-14.85" y="-17.57" fill="none" rx="0" ry="0" transform="translate(415.38 319.42)"></rect><path d="M449.965 336.384q-7.59 0-11.14-3.96-3.55-3.96-3.55-11 0-5.44 2.12-9.65t6.11-6.6q3.98-2.39 9.54-2.39 5 0 7.62 1.62 2.61 1.62 2.61 4.15 0 1.54-.96 2.45-.97.91-2.84.91-1.04 0-2.11-.33-1.08-.33-2.34-.66-1.27-.33-3.03-.33-4.56 0-6.84 2.42-2.29 2.42-2.29 6.98 0 4.35 2.2 6.3 2.2 1.95 6 1.95 1.87 0 3.27-.41t2.64-.82q1.24-.42 2.5-.42 1.27 0 2.09.8.83.8.83 2.28 0 1.71-1.38 3.25-1.37 1.54-4.12 2.5t-6.93.96"></path><rect width="28" height="33.6" x="-14" y="-16.8" fill="none" rx="0" ry="0" transform="translate(449.77 320.08)"></rect><path d="M466.905 310.974q0-5.28.99-7.61.99-2.34 2.8-2.34 1.43 0 2.26 1.18.82 1.18 1.21 2.92.38 1.73.38 3.49l-.27-.11q.93-2.97 2.89-5.12 1.95-2.14 4.7-2.14 3.24 0 4.78 2.67 1.54 2.66 1.54 6.62 0 5.28-1.21 7.37t-3.24 2.09q-1.49 0-2.17-1.21-.69-1.21-.47-4.29.22-3.24-.39-4.51-.6-1.26-1.92-1.26-1.6 0-2.61 2.01-1.02 2-1.02 4.92 0 1.15.27 2.91l.61 3.83q.33 2.06.6 4.09.28 2.04.28 3.74 0 3.03-.94 4.35-.93 1.32-2.64 1.32-1.92 0-2.97-1.24-1.04-1.24-1.59-4.04-.44-2.53-.88-6-.44-3.46-.72-7.09-.27-3.63-.27-6.55"></path><rect width="21.28" height="34.87" x="-10.64" y="-17.43" fill="none" rx="0" ry="0" transform="translate(478.05 318.96)"></rect><path d="M506.445 335.944q-4.4 0-7.67-1.95-3.27-1.95-5.06-5.58-1.79-3.63-1.79-8.64 0-5.22 1.82-9.13 1.81-3.9 5.14-6.1 3.33-2.2 7.73-2.2 4.73 0 8.19 2.12 3.47 2.11 5.39 5.91 1.93 3.79 1.93 8.85 0 5.17-1.93 8.91-1.92 3.74-5.44 5.78-3.52 2.03-8.31 2.03m.77-7.42q3.41 0 5.42-2.72 2.01-2.73 2.01-7.24 0-4.56-2.01-7.26-2.01-2.69-5.42-2.69-3.52 0-5.55 2.69-2.04 2.7-2.04 7.26 0 4.51 2.04 7.24 2.03 2.72 5.55 2.72"></path><rect width="30.2" height="33.6" x="-15.1" y="-16.8" fill="none" rx="0" ry="0" transform="translate(507.52 319.64)"></rect><path d="M541.595 301.354q4.89 0 7.04 1.43 2.14 1.43 2.14 3.68 0 1.32-.9 2.18-.91.85-2.56.85-1.71 0-3.55-.5-1.84-.49-4.26-.49-2.81 0-4.18 1.1-1.38 1.1-1.38 2.8 0 1.6 1.24 2.51 1.24.9 4.76 1.34 3.9.44 6.46 1.41 2.56.96 3.82 2.86 1.27 1.89 1.27 5.19 0 5.23-3.69 7.76-3.68 2.53-10.17 2.53-4.13 0-6.55-.66t-3.49-1.87q-1.07-1.21-1.07-2.86 0-1.43.96-2.23t2.28-.8q1.27 0 2.7.31 1.43.3 3.02.63 1.6.33 3.3.33 5.5 0 5.5-3.41 0-1.16-.55-1.87-.55-.72-1.98-1.18-1.43-.47-4.18-.75-3.3-.33-5.72-1.12-2.42-.8-3.74-2.64-1.32-1.85-1.32-5.09 0-5.12 3.85-8.28 3.85-3.16 10.95-3.16"></path><rect width="24.97" height="34.65" x="-12.48" y="-17.32" fill="none" rx="0" ry="0" transform="translate(539.51 319.18)"></rect></svg></svg>